name Walk2_EMG.mot
datacolumns 17
datarows 11
range 3.51600000 3.52600000
endheader
                time	            vasmed_r	            vaslat_r	            recfem_r	               gra_r	               sar_r	            tibant_r	           perlong_r	            addmag_r	           semimem_r	          bicfemlh_r	            gasmed_r	            gaslat_r	               sol_r	               tfl_r	              gmed_r	              gmax_r	
          3.51600000	          0.04163414	          0.08187216	          0.15686550	          0.19562118	          0.82797395	          0.39997161	          0.05001473	          0.09929014	          0.28534469	          0.20982271	          0.41726628	          0.13600105	          0.02709730	          0.15453980	          0.09096380	          0.18336781	
          3.51700000	          0.04192113	          0.08105448	          0.15486140	          0.20200971	          0.83620225	          0.39113674	          0.04983263	          0.10056194	          0.29392768	          0.21404935	          0.40813302	          0.13442727	          0.02713305	          0.15317238	          0.08998065	          0.18328088	
          3.51800000	          0.04221710	          0.08027355	          0.15291883	          0.20865419	          0.84435022	          0.38203397	          0.04965688	          0.10192580	          0.30255613	          0.21812674	          0.39923463	          0.13277098	          0.02721236	          0.15186295	          0.08901632	          0.18318005	
          3.51900000	          0.04252151	          0.07953541	          0.15104643	          0.21555448	          0.85236198	          0.37268703	          0.04948746	          0.10338330	          0.31122672	          0.22204175	          0.39058961	          0.13104378	          0.02733341	          0.15061611	          0.08807453	          0.18306166	
          3.52000000	          0.04283374	          0.07884718	          0.14925101	          0.22270987	          0.86017695	          0.36311960	          0.04932426	          0.10493549	          0.31994189	          0.22578790	          0.38221208	          0.12925868	          0.02749409	          0.14943630	          0.08715955	          0.18292173	
          3.52100000	          0.04315310	          0.07821606	          0.14753744	          0.23011639	          0.86773055	          0.35335533	          0.04916706	          0.10658204	          0.32870844	          0.22936626	          0.37411220	          0.12743019	          0.02769206	          0.14832672	          0.08627607	          0.18275561	
          3.52200000	          0.04347857	          0.07764847	          0.14590891	          0.23776509	          0.87495559	          0.34341798	          0.04901547	          0.10832085	          0.33753893	          0.23278248	          0.36629746	          0.12557470	          0.02792508	          0.14728874	          0.08542832	          0.18255785	
          3.52300000	          0.04380870	          0.07714961	          0.14436707	          0.24564141	          0.88178395	          0.33333144	          0.04886903	          0.11014801	          0.34645533	          0.23604273	          0.35877337	          0.12370932	          0.02819135	          0.14632224	          0.08461950	          0.18232278	
          3.52400000	          0.04414178	          0.07672338	          0.14291219	          0.25372791	          0.88814783	          0.32311967	          0.04872718	          0.11205878	          0.35548639	          0.23915158	          0.35154318	          0.12185027	          0.02848957	          0.14542649	          0.08385207	          0.18204562	
          3.52500000	          0.04447606	          0.07637300	          0.14154323	          0.26201094	          0.89398053	          0.31280687	          0.04858930	          0.11404957	          0.36465871	          0.24211167	          0.34460730	          0.12001182	          0.02881861	          0.14460011	          0.08312806	          0.18172353	
          3.52600000	          0.04480980	          0.07610180	          0.14025810	          0.27048599	          0.89921706	          0.30241744	          0.04845479	          0.11611895	          0.37399103	          0.24492371	          0.33796292	          0.11820595	          0.02917713	          0.14384095	          0.08244940	          0.18135570	
